<svg version="1.1" id="Ebene_1" xmlns="http://www.w3.org/2000/svg" xmlns:xlink="http://www.w3.org/1999/xlink" x="0" y="0" viewBox="0 0 288 228.7" xml:space="preserve"><style>.st0,.st1,.st3{fill-rule:evenodd;clip-rule:evenodd;fill:#8ab5e1}.st1,.st3{clip-path:url(#SVGID_2_);fill:#1f4e79}.st3{fill:#6996c3}.st13,.st4,.st42,.st46,.st47,.st51,.st52,.st54,.st55,.st8,.st9{clip-path:url(#SVGID_2_);fill-rule:evenodd;clip-rule:evenodd;fill:#6895c2}.st13,.st42,.st46,.st47,.st51,.st52,.st54,.st55,.st8,.st9{fill:#6592bf}.st13,.st42,.st46,.st47,.st51,.st52,.st54,.st55,.st9{fill:#6491be}.st13,.st42,.st46,.st47,.st51,.st52,.st54,.st55{fill:#618ebb}.st42,.st46,.st47,.st51,.st52,.st54,.st55{fill:#4f7da9}.st46,.st47,.st51,.st52,.st54,.st55{fill:#4c7aa6}.st47,.st51,.st52,.st54,.st55{fill:#4b79a5}.st51,.st52,.st54,.st55{fill:#4876a2}.st52,.st54,.st55{fill:#4775a1}.st54,.st55{fill:#45739f}.st55{fill:#44729e}.st100,.st101,.st105,.st106,.st57,.st58,.st62,.st63,.st67,.st96{clip-path:url(#SVGID_2_);fill-rule:evenodd;clip-rule:evenodd;fill:#42709c}.st100,.st101,.st105,.st106,.st58,.st62,.st63,.st67,.st96{fill:#416f9b}.st100,.st101,.st105,.st106,.st62,.st63,.st67,.st96{fill:#3e6c98}.st100,.st101,.st105,.st106,.st63,.st67,.st96{fill:#3d6b97}.st100,.st101,.st105,.st106,.st67,.st96{fill:#3a6894}.st100,.st101,.st105,.st106,.st96{fill:#285782}.st100,.st101,.st105,.st106{fill:#25547f}.st101,.st105,.st106{fill:#24537e}.st105,.st106{fill:#21507b}.st106{fill:#204f7a}</style><path class="st0" d="M62.2 202.3l-3.1-3.1H25l3.9 3.1h33.3z"/><path class="st0" d="M62.2 131.8l-3.1-3.1v70.5l3.1 3.1v-70.5z"/><path class="st0" d="M116.2 131.8v-3.1H59.1l3.1 3.1h54zM147.6 202.3l-3.2-3.1h-28.2l3.2 3.1h28.2z"/><path class="st0" d="M147.6 131.8l-3.2-3.1v70.5l3.2 3.1v-70.5z"/><path class="st0" d="M187.9 131.8v-3.1h-43.5l3.2 3.1h40.3zM262.4 202.3l-3.1-3.1h-73.5l3.1 3.1h73.5z"/><path class="st0" d="M262.4 174.5l-3.1-3.2v27.9l3.1 3.1v-27.8zM220.7 131.8l-3.2-3.1v42.6h3.2v-39.5z"/><path class="st0" d="M255.2 131.8l-3.2-3.1h-34.5l3.2 3.1h34.5zM255.2 102.8l-3.2-3.1v29l3.2 3.1v-29zM220.7 63.3l-3.2-3.1v39.5h3.2V63.3z"/><path class="st0" d="M262.4 63.3l-3.1-3.1h-41.8l3.2 3.1h41.7z"/><path class="st0" d="M262.4 34.6l-3.1-3.1v28.7l3.1 3.1V34.6zM144.4 80.9v18.8h3.2V80.9c0-17.5 9.9-20.7 23.1-20.7h3.2l-3.2-3.2c-15.9 0-26.3 3.2-26.3 23.9zM173.9 31.5l-3.2-3.2V57l3.2 3.2V31.5zM62.2 63.3l-3.1-3.1v39.5h3.1V63.3z"/><path class="st0" d="M105.6 63.3l-3.1-3.1H59.1l3.1 3.1h43.4z"/><path class="st0" d="M105.6 34.6l-3.1-3.1v28.7l3.1 3.1V34.6z"/><defs><path id="SVGID_1_" d="M25 31.5h77.4v28.7H59v39.5h57.2V63.3c0-35 28.2-35 54.5-35V57c-15.9 0-26.3 3.2-26.3 23.9v18.8h41.4V31.5h73.5v28.7h-41.7v39.5h34.5v29h-34.5v42.6h41.7v27.9h-73.5v-70.5h-41.3v70.5h-28.2v-70.5H59v70.5H25V31.5z"/></defs><clipPath id="SVGID_2_"><use xlink:href="#SVGID_1_" overflow="visible"/></clipPath><path class="st1" d="M25 28.3h234.3v170.9H25V28.3z"/><path d="M77 53.9c0-1.5-1.2-2.8-2.8-2.8-1.5 0-2.8 1.2-2.8 2.8 0 1.5 1.2 2.8 2.8 2.8 1.5 0 2.8-1.2 2.8-2.8z" clip-path="url(#SVGID_2_)" fill-rule="evenodd" clip-rule="evenodd" fill="#6a97c4"/><path class="st3" d="M76 53.9c0 1-.8 1.8-1.8 1.8s-1.8-.8-1.8-1.8.8-1.8 1.8-1.8 1.8.8 1.8 1.8zm2.8 0c0-2.5-2.1-4.6-4.6-4.6s-4.6 2.1-4.6 4.6c0 2.5 2.1 4.6 4.6 4.6s4.6-2 4.6-4.6z"/><path class="st3" d="M77.9 53.9c0 2-1.6 3.7-3.7 3.7s-3.7-1.6-3.7-3.7c0-2 1.6-3.7 3.7-3.7s3.7 1.7 3.7 3.7zm2.7 0c0-3.6-2.9-6.4-6.4-6.4s-6.4 2.9-6.4 6.4 2.9 6.4 6.4 6.4 6.4-2.8 6.4-6.4z"/><path class="st4" d="M79.7 53.9c0 3-2.5 5.5-5.5 5.5s-5.5-2.5-5.5-5.5 2.5-5.5 5.5-5.5 5.5 2.5 5.5 5.5zm2.8 0c0-4.6-3.7-8.3-8.3-8.3s-8.3 3.7-8.3 8.3 3.7 8.3 8.3 8.3 8.3-3.7 8.3-8.3z"/><path class="st4" d="M81.6 53.9c0 4.1-3.3 7.4-7.4 7.4-4.1 0-7.4-3.3-7.4-7.4 0-4.1 3.3-7.4 7.4-7.4 4.1.1 7.4 3.4 7.4 7.4zm2.7 0c0-5.6-4.5-10.1-10.1-10.1s-10.1 4.5-10.1 10.1S68.6 64 74.2 64s10.1-4.5 10.1-10.1z"/><path d="M83.4 53.9c0 5.1-4.1 9.2-9.2 9.2S65 59 65 53.9s4.1-9.2 9.2-9.2c5.1.1 9.2 4.2 9.2 9.2zm2.7 0c0-6.6-5.3-11.9-11.9-11.9-6.6 0-11.9 5.3-11.9 11.9 0 6.6 5.3 11.9 11.9 11.9 6.6.1 11.9-5.3 11.9-11.9z" clip-path="url(#SVGID_2_)" fill-rule="evenodd" clip-rule="evenodd" fill="#6794c1"/><path d="M85.2 53.9c0 6.1-4.9 11-11 11s-11-4.9-11-11 4.9-11 11-11 11 5 11 11zm2.8 0c0-7.6-6.2-13.8-13.8-13.8-7.6 0-13.8 6.2-13.8 13.8 0 7.6 6.2 13.8 13.8 13.8 7.6 0 13.8-6.1 13.8-13.8z" clip-path="url(#SVGID_2_)" fill-rule="evenodd" clip-rule="evenodd" fill="#6694c0"/><path d="M87.1 53.9c0 7.1-5.8 12.9-12.9 12.9S61.3 61 61.3 53.9 67.1 41 74.2 41s12.9 5.8 12.9 12.9zm2.7 0c0-8.6-7-15.6-15.6-15.6s-15.6 7-15.6 15.6 7 15.6 15.6 15.6c8.6.1 15.6-6.9 15.6-15.6z" clip-path="url(#SVGID_2_)" fill-rule="evenodd" clip-rule="evenodd" fill="#6693c0"/><path class="st8" d="M88.9 53.9c0 8.1-6.6 14.7-14.7 14.7S59.5 62 59.5 53.9s6.6-14.7 14.7-14.7 14.7 6.6 14.7 14.7zm2.8 0c0-9.6-7.8-17.5-17.5-17.5-9.6 0-17.5 7.8-17.5 17.5 0 9.6 7.8 17.5 17.5 17.5 9.6 0 17.5-7.8 17.5-17.5z"/><path class="st8" d="M90.7 53.9c0 9.1-7.4 16.5-16.5 16.5S57.7 63 57.7 53.9s7.4-16.5 16.5-16.5 16.5 7.4 16.5 16.5zm2.8 0c0-10.7-8.6-19.3-19.3-19.3s-19.3 8.6-19.3 19.3c0 10.7 8.6 19.3 19.3 19.3s19.3-8.6 19.3-19.3z"/><path class="st9" d="M92.6 53.9c0 10.2-8.2 18.4-18.4 18.4s-18.4-8.2-18.4-18.4S64 35.5 74.2 35.5c10.1.1 18.4 8.3 18.4 18.4zm2.7 0c0-11.7-9.5-21.1-21.1-21.1s-21.1 9.5-21.1 21.1S62.6 75 74.2 75s21.1-9.4 21.1-21.1z"/><path class="st9" d="M94.4 53.9c0 11.2-9.1 20.2-20.2 20.2-11.2.1-20.2-9-20.2-20.2s9.1-20.2 20.2-20.2c11.2 0 20.2 9.1 20.2 20.2zm2.8 0c0-12.7-10.3-23-23-23s-23 10.3-23 23 10.3 23 23 23 23-10.3 23-23z"/><path d="M96.3 53.9c0 12.2-9.9 22.1-22.1 22.1-12.2 0-22.1-9.9-22.1-22.1 0-12.2 9.9-22.1 22.1-22.1 12.2.1 22.1 10 22.1 22.1zm2.7 0c0-13.7-11.1-24.8-24.8-24.8-13.7 0-24.8 11.1-24.8 24.8 0 13.7 11.1 24.8 24.8 24.8 13.7.1 24.8-11 24.8-24.8z" clip-path="url(#SVGID_2_)" fill-rule="evenodd" clip-rule="evenodd" fill="#6390bd"/><path d="M98.1 53.9c0 13.2-10.7 23.9-23.9 23.9S50.3 67.1 50.3 53.9 61 30 74.2 30s23.9 10.8 23.9 23.9zm2.7 0c0-14.7-11.9-26.6-26.6-26.6-14.7 0-26.6 11.9-26.6 26.6 0 14.7 11.9 26.6 26.6 26.6 14.7.1 26.6-11.8 26.6-26.6z" clip-path="url(#SVGID_2_)" fill-rule="evenodd" clip-rule="evenodd" fill="#6290bc"/><path d="M99.9 53.9c0 14.2-11.5 25.7-25.7 25.7S48.5 68.2 48.5 53.9 60 28.2 74.2 28.2s25.7 11.5 25.7 25.7zm2.8 0c0-15.7-12.8-28.5-28.5-28.5S45.7 38.2 45.7 53.9s12.8 28.5 28.5 28.5 28.5-12.7 28.5-28.5z" clip-path="url(#SVGID_2_)" fill-rule="evenodd" clip-rule="evenodd" fill="#628fbc"/><path class="st13" d="M101.8 53.9c0 15.2-12.3 27.6-27.6 27.6-15.2 0-27.6-12.3-27.6-27.6S59 26.4 74.2 26.4c15.2 0 27.6 12.3 27.6 27.5zm2.7 0c0-16.7-13.6-30.3-30.3-30.3-16.7 0-30.3 13.6-30.3 30.3 0 16.7 13.6 30.3 30.3 30.3 16.7.1 30.3-13.5 30.3-30.3z"/><path class="st13" d="M103.6 53.9c0 16.2-13.2 29.4-29.4 29.4S44.8 70.2 44.8 53.9 58 24.5 74.2 24.5s29.4 13.2 29.4 29.4zm2.8 0c0-17.8-14.4-32.2-32.2-32.2S42 36.2 42 53.9s14.4 32.2 32.2 32.2 32.2-14.4 32.2-32.2z"/><path d="M105.4 53.9c0 17.3-14 31.2-31.2 31.2-17.3 0-31.2-14-31.2-31.2 0-17.3 14-31.2 31.2-31.2 17.3 0 31.2 14 31.2 31.2zm2.8 0c0-18.8-15.2-34-34-34s-34 15.2-34 34 15.2 34 34 34 34-15.2 34-34z" clip-path="url(#SVGID_2_)" fill-rule="evenodd" clip-rule="evenodd" fill="#608dba"/><path d="M107.3 53.9c0 18.3-14.8 33.1-33.1 33.1S41.1 72.2 41.1 53.9s14.8-33.1 33.1-33.1c18.3.1 33.1 14.9 33.1 33.1zm2.7 0c0-19.8-16-35.8-35.8-35.8s-35.8 16-35.8 35.8 16 35.8 35.8 35.8 35.8-16 35.8-35.8z" clip-path="url(#SVGID_2_)" fill-rule="evenodd" clip-rule="evenodd" fill="#5f8db9"/><path d="M109.1 53.9c0 19.3-15.6 34.9-34.9 34.9-19.3 0-34.9-15.6-34.9-34.9C39.3 34.7 54.9 19 74.2 19c19.3 0 34.9 15.7 34.9 34.9zm2.8 0c0-20.8-16.9-37.7-37.7-37.7S36.5 33.1 36.5 53.9c0 20.8 16.9 37.7 37.7 37.7s37.7-16.8 37.7-37.7z" clip-path="url(#SVGID_2_)" fill-rule="evenodd" clip-rule="evenodd" fill="#5f8cb9"/><path d="M111 53.9c0 20.3-16.5 36.8-36.8 36.8-20.3 0-36.8-16.5-36.8-36.8 0-20.3 16.5-36.8 36.8-36.8 20.3.1 36.8 16.5 36.8 36.8zm2.7 0c0-21.8-17.7-39.5-39.5-39.5S34.7 32.1 34.7 53.9s17.7 39.5 39.5 39.5c21.8.1 39.5-17.6 39.5-39.5z" clip-path="url(#SVGID_2_)" fill-rule="evenodd" clip-rule="evenodd" fill="#5e8cb8"/><path d="M112.8 53.9c0 21.3-17.3 38.6-38.6 38.6S35.6 75.3 35.6 53.9s17.3-38.6 38.6-38.6 38.6 17.3 38.6 38.6zm2.8 0c0-22.8-18.5-41.4-41.4-41.4-22.8 0-41.4 18.5-41.4 41.4 0 22.8 18.5 41.4 41.4 41.4 22.8 0 41.4-18.5 41.4-41.4z" clip-path="url(#SVGID_2_)" fill-rule="evenodd" clip-rule="evenodd" fill="#5e8bb8"/><path d="M114.6 53.9c0 22.3-18.1 40.4-40.4 40.4s-40.4-18-40.4-40.4c0-22.3 18.1-40.4 40.4-40.4s40.4 18.1 40.4 40.4zm2.8 0c0-23.9-19.3-43.2-43.2-43.2C50.3 10.8 31 30.1 31 53.9c0 23.9 19.3 43.2 43.2 43.2 23.9 0 43.2-19.3 43.2-43.2z" clip-path="url(#SVGID_2_)" fill-rule="evenodd" clip-rule="evenodd" fill="#5d8ab7"/><path d="M116.5 53.9c0 23.3-18.9 42.3-42.3 42.3S31.9 77.3 31.9 53.9s18.9-42.3 42.3-42.3 42.3 19 42.3 42.3zm2.7 0c0-24.9-20.2-45-45-45s-45 20.2-45 45c0 24.9 20.2 45 45 45s45-20.1 45-45z" clip-path="url(#SVGID_2_)" fill-rule="evenodd" clip-rule="evenodd" fill="#5c8ab6"/><path d="M118.3 53.9c0 24.4-19.7 44.1-44.1 44.1S30.1 78.3 30.1 53.9c0-24.4 19.7-44.1 44.1-44.1s44.1 19.8 44.1 44.1zm2.8 0C121.1 28 100.1 7 74.2 7S27.3 28 27.3 53.9s21 46.9 46.9 46.9 46.9-21 46.9-46.9z" clip-path="url(#SVGID_2_)" fill-rule="evenodd" clip-rule="evenodd" fill="#5c89b6"/><path d="M120.1 53.9c0 25.4-20.6 45.9-45.9 45.9-25.4 0-45.9-20.6-45.9-45.9C28.3 28.6 48.8 8 74.2 8s45.9 20.6 45.9 45.9zm2.8 0c0-26.9-21.8-48.7-48.7-48.7S25.5 27 25.5 53.9s21.8 48.7 48.7 48.7 48.7-21.8 48.7-48.7z" clip-path="url(#SVGID_2_)" fill-rule="evenodd" clip-rule="evenodd" fill="#5b89b5"/><path d="M122 53.9c0 26.4-21.4 47.8-47.8 47.8S26.4 80.3 26.4 53.9 47.8 6.1 74.2 6.1c26.4.1 47.8 21.5 47.8 47.8zm2.7 0c0-27.9-22.6-50.5-50.5-50.5S23.7 26 23.7 53.9s22.6 50.5 50.5 50.5 50.5-22.5 50.5-50.5z" clip-path="url(#SVGID_2_)" fill-rule="evenodd" clip-rule="evenodd" fill="#5b88b5"/><path d="M123.8 53.9c0 27.4-22.2 49.6-49.6 49.6-27.4 0-49.6-22.2-49.6-49.6 0-27.4 22.2-49.6 49.6-49.6 27.4 0 49.6 22.2 49.6 49.6zm2.8 0c0-28.9-23.5-52.4-52.4-52.4-28.9.1-52.4 23.5-52.4 52.4s23.5 52.4 52.4 52.4 52.4-23.4 52.4-52.4z" clip-path="url(#SVGID_2_)" fill-rule="evenodd" clip-rule="evenodd" fill="#5a87b4"/><path d="M125.7 53.9c0 28.4-23 51.5-51.5 51.5s-51.5-23-51.5-51.5c0-28.4 23-51.5 51.5-51.5s51.5 23.1 51.5 51.5zm2.7 0C128.4 24 104.1-.3 74.2-.3 44.3-.3 20 24 20 53.9c0 29.9 24.3 54.2 54.2 54.2 29.9.1 54.2-24.2 54.2-54.2z" clip-path="url(#SVGID_2_)" fill-rule="evenodd" clip-rule="evenodd" fill="#5987b3"/><path d="M127.5 53.9c0 29.4-23.9 53.3-53.3 53.3S20.9 83.4 20.9 53.9 44.8.6 74.2.6s53.3 23.9 53.3 53.3zm2.8 0c0-31-25.1-56.1-56.1-56.1S18.1 22.9 18.1 53.9 43.2 110 74.2 110s56.1-25.1 56.1-56.1z" clip-path="url(#SVGID_2_)" fill-rule="evenodd" clip-rule="evenodd" fill="#5986b3"/><path d="M129.3 53.9c0 30.5-24.7 55.1-55.1 55.1S19.1 84.4 19.1 53.9 43.7-1.2 74.2-1.2s55.1 24.7 55.1 55.1zm2.8 0c0-32-25.9-57.9-57.9-57.9S16.3 21.9 16.3 53.9s25.9 57.9 57.9 57.9 57.9-25.9 57.9-57.9z" clip-path="url(#SVGID_2_)" fill-rule="evenodd" clip-rule="evenodd" fill="#5886b2"/><path d="M131.2 53.9c0 31.5-25.5 57-57 57s-57-25.5-57-57 25.5-57 57-57 57 25.6 57 57zm2.7 0c0-33-26.7-59.7-59.7-59.7S14.5 21 14.5 53.9s26.7 59.7 59.7 59.7 59.7-26.7 59.7-59.7z" clip-path="url(#SVGID_2_)" fill-rule="evenodd" clip-rule="evenodd" fill="#5885b2"/><path d="M133 53.9c0 32.5-26.3 58.8-58.8 58.8S15.4 86.4 15.4 53.9 41.7-4.9 74.2-4.9 133 21.5 133 53.9zm2.8 0c0-34-27.6-61.6-61.6-61.6S12.6 19.9 12.6 53.9s27.6 61.6 61.6 61.6 61.6-27.5 61.6-61.6z" clip-path="url(#SVGID_2_)" fill-rule="evenodd" clip-rule="evenodd" fill="#5785b1"/><path d="M134.8 53.9c0 33.5-27.2 60.7-60.7 60.7S13.4 87.4 13.4 53.9 40.6-6.8 74.1-6.8c33.6.1 60.7 27.3 60.7 60.7zm2.8 0c0-35-28.4-63.4-63.4-63.4S10.8 18.9 10.8 53.9s28.4 63.4 63.4 63.4 63.4-28.3 63.4-63.4z" clip-path="url(#SVGID_2_)" fill-rule="evenodd" clip-rule="evenodd" fill="#5784b1"/><path d="M136.7 53.9c0 34.5-28 62.5-62.5 62.5s-62.5-28-62.5-62.5 28-62.5 62.5-62.5c34.5.1 62.5 28 62.5 62.5zm2.7 0c0-36-29.2-65.2-65.2-65.2S9 17.9 9 53.9s29.2 65.2 65.2 65.2 65.2-29.1 65.2-65.2z" clip-path="url(#SVGID_2_)" fill-rule="evenodd" clip-rule="evenodd" fill="#5683b0"/><path d="M138.5 53.9c0 35.5-28.8 64.3-64.3 64.3S9.9 89.4 9.9 53.9s28.8-64.3 64.3-64.3 64.3 28.8 64.3 64.3zm2.8 0c0-37-30-67.1-67.1-67.1-37 0-67.1 30-67.1 67.1 0 37 30 67.1 67.1 67.1 37 0 67.1-30 67.1-67.1z" clip-path="url(#SVGID_2_)" fill-rule="evenodd" clip-rule="evenodd" fill="#5583af"/><path d="M140.4 53.9c0 36.5-29.6 66.2-66.2 66.2S8 90.5 8 53.9s29.6-66.2 66.2-66.2 66.2 29.7 66.2 66.2zm2.7 0c0-38.1-30.9-68.9-68.9-68.9C36.1-15 5.3 15.9 5.3 53.9c0 38.1 30.9 68.9 68.9 68.9 38.1.1 68.9-30.8 68.9-68.9z" clip-path="url(#SVGID_2_)" fill-rule="evenodd" clip-rule="evenodd" fill="#5582af"/><path d="M142.2 53.9c0 37.6-30.4 68-68 68s-68-30.4-68-68 30.4-68 68-68 68 30.5 68 68zm2.8 0c0-39.1-31.7-70.8-70.8-70.8-39.1 0-70.8 31.7-70.8 70.8 0 39.1 31.7 70.8 70.8 70.8 39.1 0 70.8-31.7 70.8-70.8z" clip-path="url(#SVGID_2_)" fill-rule="evenodd" clip-rule="evenodd" fill="#5482ae"/><path d="M144 53.9c0 38.6-31.3 69.8-69.8 69.8S4.4 92.5 4.4 53.9s31.3-69.8 69.8-69.8S144 15.4 144 53.9zm2.8 0c0-40.1-32.5-72.6-72.6-72.6S1.6 13.9 1.6 53.9c0 40.1 32.5 72.6 72.6 72.6s72.6-32.5 72.6-72.6z" clip-path="url(#SVGID_2_)" fill-rule="evenodd" clip-rule="evenodd" fill="#5481ae"/><path d="M145.9 53.9c0 39.6-32.1 71.7-71.7 71.7S2.5 93.5 2.5 53.9s32.1-71.7 71.7-71.7 71.7 32.2 71.7 71.7zm2.7 0c0-41.1-33.3-74.4-74.4-74.4S-.2 12.8-.2 53.9s33.3 74.4 74.4 74.4 74.4-33.2 74.4-74.4z" clip-path="url(#SVGID_2_)" fill-rule="evenodd" clip-rule="evenodd" fill="#5381ad"/><path d="M147.7 53.9c0 40.6-32.9 73.5-73.5 73.5S.7 94.5.7 53.9s32.9-73.5 73.5-73.5 73.5 32.9 73.5 73.5zm2.8 0c0-42.1-34.1-76.3-76.3-76.3S-2.1 11.8-2.1 53.9s34.1 76.3 76.3 76.3 76.3-34.1 76.3-76.3z" clip-path="url(#SVGID_2_)" fill-rule="evenodd" clip-rule="evenodd" fill="#5280ac"/><path d="M149.6 53.9c0 41.6-33.7 75.4-75.4 75.4-41.6 0-75.4-33.7-75.4-75.4 0-41.6 33.7-75.4 75.4-75.4 41.6.1 75.4 33.8 75.4 75.4zm2.7 0c0-43.1-35-78.1-78.1-78.1s-78.1 35-78.1 78.1 35 78.1 78.1 78.1 78.1-34.9 78.1-78.1z" clip-path="url(#SVGID_2_)" fill-rule="evenodd" clip-rule="evenodd" fill="#527fac"/><path d="M151.4 53.9c0 42.6-34.6 77.2-77.2 77.2S-3 96.6-3 53.9c0-42.6 34.6-77.2 77.2-77.2 42.6.1 77.2 34.6 77.2 77.2zm2.7 0c0-44.2-35.8-79.9-79.9-79.9C30-26-5.7 9.8-5.7 53.9c0 44.2 35.8 79.9 79.9 79.9 44.2.1 79.9-35.7 79.9-79.9z" clip-path="url(#SVGID_2_)" fill-rule="evenodd" clip-rule="evenodd" fill="#517fab"/><path d="M153.2 53.9c0 43.6-35.4 79-79 79s-79-35.4-79-79 35.4-79 79-79 79 35.4 79 79zm2.8 0c0-45.2-36.6-81.8-81.8-81.8C29-27.8-7.6 8.8-7.6 53.9c0 45.2 36.6 81.8 81.8 81.8 45.2 0 81.8-36.6 81.8-81.8z" clip-path="url(#SVGID_2_)" fill-rule="evenodd" clip-rule="evenodd" fill="#517eab"/><path d="M155.1 53.9c0 44.7-36.2 80.9-80.9 80.9S-6.7 98.6-6.7 53.9 29.5-27 74.2-27s80.9 36.3 80.9 80.9zm2.7 0c0-46.2-37.4-83.6-83.6-83.6C28-29.7-9.4 7.8-9.4 53.9c0 46.2 37.4 83.6 83.6 83.6 46.2.1 83.6-37.4 83.6-83.6z" clip-path="url(#SVGID_2_)" fill-rule="evenodd" clip-rule="evenodd" fill="#507eaa"/><path class="st42" d="M156.9 53.9c0 45.7-37 82.7-82.7 82.7s-82.7-37-82.7-82.7 37-82.7 82.7-82.7 82.7 37.1 82.7 82.7zm2.8 0c0-47.2-38.3-85.5-85.5-85.5-47.2.1-85.5 38.3-85.5 85.5s38.3 85.5 85.5 85.5 85.5-38.3 85.5-85.5z"/><path class="st42" d="M158.7 53.9c0 46.7-37.9 84.5-84.5 84.5s-84.5-37.9-84.5-84.5 37.9-84.5 84.5-84.5 84.5 37.9 84.5 84.5zm2.8 0c0-48.2-39.1-87.3-87.3-87.3S-13.1 5.7-13.1 53.9s39.1 87.3 87.3 87.3 87.3-39 87.3-87.3z"/><path d="M160.6 53.9c0 47.7-38.7 86.4-86.4 86.4s-86.4-38.7-86.4-86.4 38.7-86.4 86.4-86.4c47.7.1 86.4 38.7 86.4 86.4zm2.7 0c0-49.2-39.9-89.1-89.1-89.1S-14.9 4.7-14.9 53.9 25 143 74.2 143s89.1-39.8 89.1-89.1z" clip-path="url(#SVGID_2_)" fill-rule="evenodd" clip-rule="evenodd" fill="#4e7ca8"/><path d="M162.4 53.9c0 48.7-39.5 88.2-88.2 88.2S-14 102.6-14 53.9s39.5-88.2 88.2-88.2 88.2 39.5 88.2 88.2zm2.8 0c0-50.2-40.7-91-91-91s-91 40.7-91 91 40.7 91 91 91 91-40.7 91-91z" clip-path="url(#SVGID_2_)" fill-rule="evenodd" clip-rule="evenodd" fill="#4e7ba8"/><path d="M164.3 53.9c0 49.7-40.3 90.1-90.1 90.1-49.7 0-90.1-40.3-90.1-90.1 0-49.7 40.3-90.1 90.1-90.1 49.7.1 90.1 40.4 90.1 90.1zm2.7 0c0-51.3-41.6-92.8-92.8-92.8S-18.6 2.7-18.6 53.9c0 51.3 41.6 92.8 92.8 92.8S167 105.2 167 53.9z" clip-path="url(#SVGID_2_)" fill-rule="evenodd" clip-rule="evenodd" fill="#4d7ba7"/><path class="st46" d="M166.1 53.9c0 50.8-41.1 91.9-91.9 91.9-50.8 0-91.9-41.1-91.9-91.9C-17.7 3.1 23.4-38 74.2-38c50.8.1 91.9 41.2 91.9 91.9zm2.8 0c0-52.3-42.4-94.7-94.7-94.7-52.3 0-94.7 42.4-94.7 94.7 0 52.3 42.4 94.7 94.7 94.7 52.3 0 94.7-42.4 94.7-94.7z"/><path class="st46" d="M167.9 53.9c0 51.8-42 93.7-93.7 93.7s-93.7-42-93.7-93.7 42-93.7 93.7-93.7 93.7 42 93.7 93.7zm2.8 0c0-53.3-43.2-96.5-96.5-96.5S-22.3.6-22.3 53.9s43.2 96.5 96.5 96.5 96.5-43.2 96.5-96.5z"/><path class="st47" d="M169.8 53.9c0 52.8-42.8 95.6-95.6 95.6s-95.6-42.8-95.6-95.6 42.8-95.6 95.6-95.6 95.6 42.9 95.6 95.6zm2.7 0c0-54.3-44-98.3-98.3-98.3s-98.3 44-98.3 98.3 44 98.3 98.3 98.3c54.3.1 98.3-43.9 98.3-98.3z"/><path class="st47" d="M171.6 53.9c0 53.8-43.6 97.4-97.4 97.4s-97.4-43.6-97.4-97.4 43.6-97.4 97.4-97.4S171.6.1 171.6 53.9zm2.8 0c0-55.3-44.8-100.2-100.2-100.2S-26-1.4-26 53.9c0 55.3 44.8 100.2 100.2 100.2s100.2-44.8 100.2-100.2z"/><path d="M173.4 53.9c0 54.8-44.4 99.2-99.2 99.2S-25 108.8-25 53.9c0-54.8 44.4-99.2 99.2-99.2s99.2 44.4 99.2 99.2zm2.8 0c0-56.3-45.7-102-102-102s-102 45.7-102 102 45.7 102 102 102 102-45.6 102-102z" clip-path="url(#SVGID_2_)" fill-rule="evenodd" clip-rule="evenodd" fill="#4a78a4"/><path d="M175.3 53.9C175.3 109.8 130 155 74.2 155S-26.9 109.8-26.9 53.9c0-55.8 45.3-101.1 101.1-101.1 55.8.1 101.1 45.3 101.1 101.1zm2.7 0C178-3.4 131.5-49.9 74.2-49.9S-29.6-3.4-29.6 53.9 16.8 157.8 74.2 157.8 178 111.3 178 53.9z" clip-path="url(#SVGID_2_)" fill-rule="evenodd" clip-rule="evenodd" fill="#4a77a4"/><path d="M177.1 53.9c0 56.8-46.1 102.9-102.9 102.9-56.8 0-102.9-46.1-102.9-102.9C-28.7-2.9 17.4-49 74.2-49 131-49 177.1-2.9 177.1 53.9zm2.8 0c0-58.4-47.3-105.7-105.7-105.7S-31.5-4.4-31.5 53.9 15.8 159.6 74.2 159.6s105.7-47.3 105.7-105.7z" clip-path="url(#SVGID_2_)" fill-rule="evenodd" clip-rule="evenodd" fill="#4977a3"/><path class="st51" d="M179 53.9c0 57.9-46.9 104.8-104.8 104.8S-30.6 111.8-30.6 53.9 16.3-50.9 74.2-50.9c57.9.1 104.8 47 104.8 104.8zm2.7 0c0-59.4-48.1-107.5-107.5-107.5S-33.3-5.4-33.3 53.9c0 59.4 48.1 107.5 107.5 107.5 59.4.1 107.5-48.1 107.5-107.5z"/><path class="st51" d="M180.8 53.9c0 58.9-47.7 106.6-106.6 106.6S-32.4 112.8-32.4 53.9C-32.4-5 15.3-52.7 74.2-52.7S180.8-4.9 180.8 53.9zm2.8 0c0-60.4-49-109.4-109.4-109.4-60.4 0-109.4 49-109.4 109.4 0 60.4 49 109.4 109.4 109.4 60.4 0 109.4-49 109.4-109.4z"/><path class="st52" d="M182.6 53.9c0 59.9-48.5 108.4-108.4 108.4S-34.2 113.8-34.2 53.9 14.3-54.5 74.2-54.5 182.6-5.9 182.6 53.9zm2.8 0c0-61.4-49.8-111.2-111.2-111.2C12.8-57.2-37-7.5-37 53.9c0 61.4 49.8 111.2 111.2 111.2 61.4 0 111.2-49.7 111.2-111.2z"/><path class="st52" d="M184.5 53.9c0 60.9-49.4 110.3-110.3 110.3S-36.1 114.9-36.1 53.9 13.3-56.3 74.2-56.3 184.5-7 184.5 53.9zm2.7 0c0-62.4-50.6-113-113-113s-113 50.6-113 113 50.6 113 113 113 113-50.5 113-113z"/><path d="M186.3 53.9c0 61.9-50.2 112.1-112.1 112.1S-37.9 115.9-37.9 53.9 12.3-58.2 74.2-58.2 186.3-8 186.3 53.9zm2.8 0C189.1-9.5 137.7-61 74.2-61S-40.7-9.5-40.7 53.9 10.8 168.8 74.2 168.8s114.9-51.4 114.9-114.9z" clip-path="url(#SVGID_2_)" fill-rule="evenodd" clip-rule="evenodd" fill="#4674a0"/><path class="st54" d="M188.1 53.9c0 62.9-51 114-114 114-62.9 0-114-51-114-114 0-62.9 51-114 114-114 63 .1 114 51.1 114 114zm2.8 0c0-64.5-52.3-116.7-116.7-116.7S-42.5-10.5-42.5 53.9 9.7 170.7 74.2 170.7s116.7-52.3 116.7-116.8z"/><path class="st54" d="M190 53.9c0 63.9-51.8 115.8-115.8 115.8-63.9 0-115.8-51.8-115.8-115.8C-41.6-10 10.3-61.8 74.2-61.8S190-10 190 53.9zm2.7 0c0-65.5-53.1-118.5-118.5-118.5S-44.3-11.5-44.3 53.9s53 118.6 118.5 118.6 118.5-53.1 118.5-118.6z"/><path class="st55" d="M191.8 53.9c0 65-52.7 117.6-117.6 117.6-65 0-117.6-52.7-117.6-117.6 0-65 52.7-117.6 117.6-117.6 65 0 117.6 52.7 117.6 117.6zm2.8 0c0-66.5-53.9-120.4-120.4-120.4S-46.2-12.5-46.2 53.9c0 66.5 53.9 120.4 120.4 120.4s120.4-53.9 120.4-120.4z"/><path class="st55" d="M193.7 53.9c0 66-53.5 119.5-119.5 119.5S-45.3 119.9-45.3 53.9 8.2-65.6 74.2-65.6c66 .1 119.5 53.6 119.5 119.5zm2.7 0c0-67.5-54.7-122.2-122.2-122.2S-48-13.6-48 53.9 6.7 176.1 74.2 176.1c67.5.1 122.2-54.7 122.2-122.2z"/><path d="M195.5 53.9c0 67-54.3 121.3-121.3 121.3S-47.1 120.9-47.1 53.9 7.2-67.4 74.2-67.4 195.5-13 195.5 53.9zm2.8 0c0-68.5-55.5-124.1-124.1-124.1C5.7-70.1-49.9-14.6-49.9 53.9-49.9 122.5 5.7 178 74.2 178s124.1-55.5 124.1-124.1z" clip-path="url(#SVGID_2_)" fill-rule="evenodd" clip-rule="evenodd" fill="#43719d"/><path class="st57" d="M197.3 53.9c0 68-55.1 123.1-123.1 123.1S-48.9 122-48.9 53.9 6.2-69.2 74.2-69.2 197.3-14.1 197.3 53.9zm2.8 0C200.1-15.6 143.7-72 74.2-72 4.7-71.9-51.7-15.6-51.7 53.9S4.7 179.8 74.2 179.8s125.9-56.3 125.9-125.9z"/><path class="st57" d="M199.2 53.9c0 69-56 125-125 125s-125-56-125-125 56-125 125-125 125 56 125 125zm2.7 0c0-70.5-57.2-127.7-127.7-127.7S-53.5-16.6-53.5 53.9 3.7 181.6 74.2 181.6s127.7-57.1 127.7-127.7z"/><path class="st58" d="M201 53.9c0 70-56.8 126.8-126.8 126.8S-52.6 124-52.6 53.9c0-70 56.8-126.8 126.8-126.8S201-16.1 201 53.9zm2.8 0c0-71.6-58-129.6-129.6-129.6S-55.4-17.6-55.4 53.9s58 129.6 129.6 129.6 129.6-58 129.6-129.6z"/><path class="st58" d="M202.9 53.9c0 71.1-57.6 128.7-128.7 128.7S-54.5 125-54.5 53.9 3.1-74.8 74.2-74.8c71.1.1 128.7 57.7 128.7 128.7zm2.7 0c0-72.6-58.8-131.4-131.4-131.4S-57.2-18.6-57.2 53.9 1.6 185.4 74.2 185.4s131.4-58.9 131.4-131.5z"/><path d="M204.7 53.9c0 72.1-58.4 130.5-130.5 130.5S-56.3 126-56.3 53.9 2.1-76.6 74.2-76.6c72.1.1 130.5 58.5 130.5 130.5zm2.7 0c0-73.6-59.7-133.2-133.2-133.2S-59-19.6-59 53.9.6 187.2 74.2 187.2s133.2-59.7 133.2-133.3z" clip-path="url(#SVGID_2_)" fill-rule="evenodd" clip-rule="evenodd" fill="#406e9a"/><path d="M206.5 53.9c0 73.1-59.2 132.3-132.3 132.3C1.1 186.3-58.1 127-58.1 53.9c0-73.1 59.2-132.3 132.3-132.3 73.1 0 132.3 59.3 132.3 132.3zm2.8 0c0-74.6-60.5-135.1-135.1-135.1C-.4-81.1-60.9-20.7-60.9 53.9-60.9 128.6-.4 189 74.2 189s135.1-60.4 135.1-135.1z" clip-path="url(#SVGID_2_)" fill-rule="evenodd" clip-rule="evenodd" fill="#3f6e99"/><path d="M208.4 53.9c0 74.1-60.1 134.2-134.2 134.2S-60 128-60 53.9.1-80.2 74.2-80.2s134.2 60 134.2 134.1zm2.7 0C211.1-21.7 149.8-83 74.2-83-1.4-83-62.7-21.7-62.7 53.9c0 75.6 61.3 136.9 136.9 136.9 75.6.1 136.9-61.2 136.9-136.9z" clip-path="url(#SVGID_2_)" fill-rule="evenodd" clip-rule="evenodd" fill="#3f6d99"/><path class="st62" d="M210.2 53.9c0 75.1-60.9 136-136 136s-136-60.9-136-136 60.9-136 136-136 136 60.9 136 136zm2.8 0c0-76.6-62.1-138.8-138.8-138.8-76.6.1-138.8 62.2-138.8 138.8 0 76.6 62.1 138.8 138.8 138.8 76.6 0 138.8-62.1 138.8-138.8z"/><path class="st62" d="M212 53.9c0 76.1-61.7 137.8-137.8 137.8S-63.6 130.1-63.6 53.9-1.9-83.9 74.2-83.9 212-22.2 212 53.9zm2.8 0c0-77.7-62.9-140.6-140.6-140.6S-66.4-23.7-66.4 53.9c0 77.7 62.9 140.6 140.6 140.6s140.6-62.9 140.6-140.6z"/><path class="st63" d="M213.9 53.9c0 77.1-62.5 139.7-139.7 139.7S-65.5 131.1-65.5 53.9-2.9-85.7 74.2-85.7 213.9-23.2 213.9 53.9zm2.7 0c0-78.7-63.8-142.4-142.4-142.4S-68.2-24.7-68.2 53.9-4.5 196.4 74.2 196.4s142.4-63.8 142.4-142.5z"/><path class="st63" d="M215.7 53.9c0 78.2-63.4 141.5-141.5 141.5-78.2.1-141.5-63.3-141.5-141.5C-67.3-24.2-4-87.6 74.2-87.6S215.7-24.2 215.7 53.9zm2.8 0c0-79.7-64.6-144.3-144.3-144.3S-70.1-25.7-70.1 53.9-5.5 198.2 74.2 198.2s144.3-64.6 144.3-144.3z"/><path d="M217.6 53.9c0 79.2-64.2 143.4-143.4 143.4S-69.2 133.1-69.2 53.9C-69.2-25.2-5-89.4 74.2-89.4S217.6-25.2 217.6 53.9zm2.7 0c0-80.7-65.4-146.1-146.1-146.1S-71.9-26.7-71.9 53.9-6.5 200.1 74.2 200.1s146.1-65.5 146.1-146.2z" clip-path="url(#SVGID_2_)" fill-rule="evenodd" clip-rule="evenodd" fill="#3c6a96"/><path d="M219.4 53.9c0 80.2-65 145.2-145.2 145.2C-6 199.1-71 134.1-71 53.9-71-26.2-6-91.2 74.2-91.2c80.2 0 145.2 65 145.2 145.1zm2.8 0c0-81.7-66.2-148-148-148s-148 66.2-148 148c0 81.7 66.2 148 148 148s148-66.2 148-148z" clip-path="url(#SVGID_2_)" fill-rule="evenodd" clip-rule="evenodd" fill="#3b6a95"/><path d="M221.2 53.9c0 81.2-65.8 147-147 147s-147-65.8-147-147 65.8-147 147-147 147 65.8 147 147zm2.8 0c0-82.7-67.1-149.8-149.8-149.8-82.7.1-149.8 67.1-149.8 149.8 0 82.7 67.1 149.8 149.8 149.8 82.7 0 149.8-67 149.8-149.8z" clip-path="url(#SVGID_2_)" fill-rule="evenodd" clip-rule="evenodd" fill="#3b6995"/><path class="st67" d="M223.1 53.9c0 82.2-66.7 148.9-148.9 148.9S-74.7 136.2-74.7 53.9-8-94.9 74.2-94.9 223.1-28.3 223.1 53.9zm2.7 0c0-83.7-67.9-151.6-151.6-151.6-83.7 0-151.6 67.9-151.6 151.6 0 83.7 67.9 151.6 151.6 151.6 83.7.1 151.6-67.8 151.6-151.6z"/><path class="st67" d="M224.9 53.9c0 83.2-67.5 150.7-150.7 150.7S-76.5 137.2-76.5 53.9-9-96.8 74.2-96.8 224.9-29.3 224.9 53.9zm2.8 0c0-84.8-68.7-153.5-153.5-153.5S-79.3-30.9-79.3 53.9s68.7 153.5 153.5 153.5 153.5-68.7 153.5-153.5z"/><path d="M226.7 53.9c0 84.2-68.3 152.5-152.5 152.5S-78.3 138.2-78.3 53.9-10.1-98.6 74.2-98.6 226.7-30.3 226.7 53.9zm2.8 0c0-85.8-69.5-155.3-155.3-155.3S-81.1-31.8-81.1 53.9c0 85.8 69.5 155.3 155.3 155.3s155.3-69.5 155.3-155.3z" clip-path="url(#SVGID_2_)" fill-rule="evenodd" clip-rule="evenodd" fill="#396793"/><path d="M228.6 53.9c0 85.3-69.1 154.4-154.4 154.4S-80.2 139.2-80.2 53.9c0-85.3 69.1-154.4 154.4-154.4S228.6-31.3 228.6 53.9zm2.7 0c0-86.8-70.4-157.1-157.1-157.1S-82.9-32.8-82.9 53.9-12.5 211 74.2 211s157.1-70.3 157.1-157.1z" clip-path="url(#SVGID_2_)" fill-rule="evenodd" clip-rule="evenodd" fill="#386792"/><path d="M230.4 53.9c0 86.3-69.9 156.2-156.2 156.2C-12.1 210.2-82 140.2-82 53.9c0-86.3 69.9-156.2 156.2-156.2 86.3 0 156.2 70 156.2 156.2zm2.8 0c0-87.8-71.2-159-159-159s-159 71.2-159 159 71.2 159 159 159 159-71.2 159-159z" clip-path="url(#SVGID_2_)" fill-rule="evenodd" clip-rule="evenodd" fill="#386692"/><path d="M232.3 53.9c0 87.3-70.8 158.1-158.1 158.1S-83.9 141.2-83.9 53.9s70.8-158.1 158.1-158.1c87.3.1 158.1 70.9 158.1 158.1zm2.7 0c0-88.8-72-160.8-160.8-160.8S-86.6-34.9-86.6 53.9s72 160.8 160.8 160.8S235 142.8 235 53.9z" clip-path="url(#SVGID_2_)" fill-rule="evenodd" clip-rule="evenodd" fill="#376691"/><path d="M234.1 53.9c0 88.3-71.6 159.9-159.9 159.9-88.3 0-159.9-71.6-159.9-159.9C-85.7-34.4-14.1-106 74.2-106c88.3 0 159.9 71.6 159.9 159.9zm2.8 0c0-89.8-72.8-162.7-162.7-162.7-89.8 0-162.7 72.8-162.7 162.7 0 89.8 72.8 162.7 162.7 162.7 89.8 0 162.7-72.8 162.7-162.7z" clip-path="url(#SVGID_2_)" fill-rule="evenodd" clip-rule="evenodd" fill="#376591"/><path d="M235.9 53.9c0 89.3-72.4 161.7-161.7 161.7S-87.5 143.3-87.5 53.9c0-89.3 72.4-161.7 161.7-161.7S235.9-35.4 235.9 53.9zm2.8 0c0-90.8-73.6-164.5-164.5-164.5-90.8 0-164.5 73.6-164.5 164.5 0 90.8 73.6 164.5 164.5 164.5 90.8 0 164.5-73.6 164.5-164.5z" clip-path="url(#SVGID_2_)" fill-rule="evenodd" clip-rule="evenodd" fill="#366490"/><path d="M237.8 53.9c0 90.3-73.2 163.6-163.6 163.6S-89.4 144.3-89.4 53.9s73.2-163.6 163.6-163.6S237.8-36.4 237.8 53.9zm2.7 0c0-91.9-74.5-166.3-166.3-166.3-91.9 0-166.3 74.5-166.3 166.3 0 91.9 74.5 166.3 166.3 166.3 91.9.1 166.3-74.4 166.3-166.3z" clip-path="url(#SVGID_2_)" fill-rule="evenodd" clip-rule="evenodd" fill="#35648f"/><path d="M239.6 53.9c0 91.4-74.1 165.4-165.4 165.4s-165.4-74-165.4-165.4 74.1-165.4 165.4-165.4S239.6-37.4 239.6 53.9zm2.8 0c0-92.9-75.3-168.2-168.2-168.2S-94-38.9-94 53.9c0 92.9 75.3 168.2 168.2 168.2s168.2-75.3 168.2-168.2z" clip-path="url(#SVGID_2_)" fill-rule="evenodd" clip-rule="evenodd" fill="#35638f"/><path d="M241.4 53.9c0 92.4-74.9 167.2-167.2 167.2S-93.1 146.3-93.1 53.9s74.9-167.2 167.2-167.2S241.4-38.4 241.4 53.9zm2.8 0c0-93.9-76.1-170-170-170s-170 76.1-170 170 76.1 170 170 170 170-76.1 170-170z" clip-path="url(#SVGID_2_)" fill-rule="evenodd" clip-rule="evenodd" fill="#34638e"/><path d="M243.3 53.9c0 93.4-75.7 169.1-169.1 169.1-93.4 0-169.1-75.7-169.1-169.1 0-93.4 75.7-169.1 169.1-169.1 93.4.1 169.1 75.8 169.1 169.1zm2.7 0c0-94.9-76.9-171.8-171.8-171.8S-97.6-41-97.6 53.9s76.9 171.8 171.8 171.8S246 148.9 246 53.9z" clip-path="url(#SVGID_2_)" fill-rule="evenodd" clip-rule="evenodd" fill="#34628e"/><path d="M245.1 53.9c0 94.4-76.5 170.9-170.9 170.9S-96.7 148.3-96.7 53.9-20.2-117 74.2-117 245.1-40.5 245.1 53.9zm2.8 0c0-95.9-77.8-173.7-173.7-173.7S-99.5-42-99.5 53.9s77.8 173.7 173.7 173.7 173.7-77.7 173.7-173.7z" clip-path="url(#SVGID_2_)" fill-rule="evenodd" clip-rule="evenodd" fill="#33628d"/><path d="M247 53.9c0 95.4-77.3 172.8-172.8 172.8-95.4 0-172.8-77.3-172.8-172.8 0-95.4 77.3-172.8 172.8-172.8 95.4.1 172.8 77.4 172.8 172.8zm2.7 0c0-96.9-78.6-175.5-175.5-175.5S-101.3-43-101.3 53.9s78.6 175.5 175.5 175.5 175.5-78.5 175.5-175.5z" clip-path="url(#SVGID_2_)" fill-rule="evenodd" clip-rule="evenodd" fill="#32618c"/><path d="M248.8 53.9c0 96.4-78.2 174.6-174.6 174.6-96.4 0-174.6-78.2-174.6-174.6 0-96.4 78.2-174.6 174.6-174.6 96.4 0 174.6 78.2 174.6 174.6zm2.8 0c0-98-79.4-177.4-177.4-177.4S-103.2-44.1-103.2 53.9s79.4 177.4 177.4 177.4 177.4-79.4 177.4-177.4z" clip-path="url(#SVGID_2_)" fill-rule="evenodd" clip-rule="evenodd" fill="#32608c"/><path d="M250.6 53.9c0 97.4-79 176.4-176.4 176.4s-176.4-79-176.4-176.4 79-176.4 176.4-176.4 176.4 79 176.4 176.4zm2.8 0c0-99-80.2-179.2-179.2-179.2C-24.8-125.2-105-45-105 53.9c0 99 80.2 179.2 179.2 179.2 99 0 179.2-80.2 179.2-179.2z" clip-path="url(#SVGID_2_)" fill-rule="evenodd" clip-rule="evenodd" fill="#31608b"/><path d="M252.5 53.9c0 98.5-79.8 178.3-178.3 178.3s-178.3-79.8-178.3-178.3 79.8-178.3 178.3-178.3S252.5-44.5 252.5 53.9zm2.7 0c0-100-81.1-181-181-181-100 0-181 81.1-181 181 0 100 81.1 181 181 181 100 .1 181-81 181-181z" clip-path="url(#SVGID_2_)" fill-rule="evenodd" clip-rule="evenodd" fill="#315f8b"/><path d="M254.3 53.9c0 99.5-80.6 180.1-180.1 180.1s-180.1-80.6-180.1-180.1 80.6-180.1 180.1-180.1S254.3-45.5 254.3 53.9zm2.8 0c0-101-81.9-182.9-182.9-182.9S-108.7-47.1-108.7 53.9s81.9 182.9 182.9 182.9 182.9-81.9 182.9-182.9z" clip-path="url(#SVGID_2_)" fill-rule="evenodd" clip-rule="evenodd" fill="#305f8a"/><path d="M256.2 53.9c0 100.5-81.5 182-182 182s-182-81.5-182-182 81.5-182 182-182 182 81.6 182 182zm2.7 0c0-102-82.7-184.7-184.7-184.7S-110.5-48.1-110.5 53.9s82.7 184.7 184.7 184.7S258.9 156 258.9 53.9z" clip-path="url(#SVGID_2_)" fill-rule="evenodd" clip-rule="evenodd" fill="#305e8a"/><path d="M258 53.9c0 101.5-82.3 183.8-183.8 183.8-101.5 0-183.8-82.3-183.8-183.8 0-101.5 82.3-183.8 183.8-183.8C175.7-129.8 258-47.6 258 53.9zm2.7 0c0-103-83.5-186.5-186.5-186.5S-112.3-49.1-112.3 53.9s83.5 186.5 186.5 186.5S260.7 157 260.7 53.9z" clip-path="url(#SVGID_2_)" fill-rule="evenodd" clip-rule="evenodd" fill="#2f5e89"/><path d="M259.8 53.9c0 102.5-83.1 185.6-185.6 185.6s-185.6-83.1-185.6-185.6 83.1-185.6 185.6-185.6S259.8-48.6 259.8 53.9zm2.8 0c0-104-84.3-188.4-188.4-188.4S-114.2-50.1-114.2 53.9s84.3 188.4 188.4 188.4S262.6 158 262.6 53.9z" clip-path="url(#SVGID_2_)" fill-rule="evenodd" clip-rule="evenodd" fill="#2e5d88"/><path d="M261.7 53.9c0 103.5-83.9 187.5-187.5 187.5-103.5 0-187.5-83.9-187.5-187.5 0-103.5 83.9-187.5 187.5-187.5 103.5.1 187.5 84 187.5 187.5zm2.7 0c0-105.1-85.2-190.2-190.2-190.2C-30.9-136.3-116-51.1-116 53.9c0 105.1 85.2 190.2 190.2 190.2 105.1.1 190.2-85.1 190.2-190.2z" clip-path="url(#SVGID_2_)" fill-rule="evenodd" clip-rule="evenodd" fill="#2e5c88"/><path d="M263.5 53.9c0 104.5-84.8 189.3-189.3 189.3s-189.3-84.8-189.3-189.3c0-104.6 84.8-189.3 189.3-189.3S263.5-50.6 263.5 53.9zm2.8 0c0-106.1-86-192.1-192.1-192.1s-192.1 86-192.1 192.1S-31.9 246 74.2 246s192.1-86 192.1-192.1z" clip-path="url(#SVGID_2_)" fill-rule="evenodd" clip-rule="evenodd" fill="#2d5c87"/><path d="M265.3 53.9c0 105.6-85.6 191.1-191.1 191.1s-191.1-85.6-191.1-191.1 85.6-191.1 191.1-191.1S265.3-51.6 265.3 53.9zm2.8 0c0-107-86.8-193.9-193.9-193.9-107.1 0-193.9 86.8-193.9 193.9 0 107.1 86.8 193.9 193.9 193.9 107.1 0 193.9-86.8 193.9-193.9z" clip-path="url(#SVGID_2_)" fill-rule="evenodd" clip-rule="evenodd" fill="#2d5b87"/><path d="M267.2 53.9c0 106.6-86.4 193-193 193s-193-86.4-193-193 86.4-193 193-193 193 86.5 193 193zm2.7 0c0-108.1-87.6-195.7-195.7-195.7S-121.5-54.2-121.5 53.9s87.6 195.7 195.7 195.7S269.9 162 269.9 53.9z" clip-path="url(#SVGID_2_)" fill-rule="evenodd" clip-rule="evenodd" fill="#2c5b86"/><path d="M269 53.9c0 107.6-87.2 194.8-194.8 194.8s-194.8-87.2-194.8-194.8 87.2-194.8 194.8-194.8S269-53.6 269 53.9zm2.8 0c0-109.1-88.5-197.6-197.6-197.6S-123.4-55.2-123.4 53.9s88.5 197.6 197.6 197.6 197.6-88.4 197.6-197.6z" clip-path="url(#SVGID_2_)" fill-rule="evenodd" clip-rule="evenodd" fill="#2b5a85"/><path d="M270.9 53.9c0 108.6-88 196.7-196.7 196.7-108.6 0-196.7-88-196.7-196.7 0-108.6 88-196.7 196.7-196.7 108.6.1 196.7 88.1 196.7 196.7zm2.7 0c0-110.1-89.3-199.4-199.4-199.4S-125.2-56.2-125.2 53.9s89.3 199.4 199.4 199.4 199.4-89.2 199.4-199.4z" clip-path="url(#SVGID_2_)" fill-rule="evenodd" clip-rule="evenodd" fill="#2b5985"/><path d="M272.7 53.9c0 109.6-88.9 198.5-198.5 198.5s-198.5-88.9-198.5-198.5 88.9-198.5 198.5-198.5c109.6.1 198.5 88.9 198.5 198.5zm2.8 0c0-111.1-90.1-201.3-201.3-201.3S-127.1-57.2-127.1 53.9-37 255.2 74.2 255.2s201.3-90.1 201.3-201.3z" clip-path="url(#SVGID_2_)" fill-rule="evenodd" clip-rule="evenodd" fill="#2a5984"/><path d="M274.5 53.9c0 110.6-89.7 200.3-200.3 200.3-110.6 0-200.3-89.7-200.3-200.3 0-110.6 89.7-200.3 200.3-200.3 110.6 0 200.3 89.7 200.3 200.3zm2.8 0c0-112.2-90.9-203.1-203.1-203.1s-203.1 91-203.1 203.1C-128.9 166.1-38 257 74.2 257s203.1-90.9 203.1-203.1z" clip-path="url(#SVGID_2_)" fill-rule="evenodd" clip-rule="evenodd" fill="#2a5884"/><path d="M276.4 53.9c0 111.7-90.5 202.2-202.2 202.2-111.7 0-202.2-90.5-202.2-202.2 0-111.7 90.5-202.2 202.2-202.2 111.7.1 202.2 90.6 202.2 202.2zm2.7 0C279.1-59.2 187.4-151 74.2-151S-130.7-59.2-130.7 53.9c0 113.2 91.7 204.9 204.9 204.9 113.2.1 204.9-91.7 204.9-204.9z" clip-path="url(#SVGID_2_)" fill-rule="evenodd" clip-rule="evenodd" fill="#295883"/><path class="st96" d="M278.2 53.9c0 112.7-91.3 204-204 204s-204-91.3-204-204 91.3-204 204-204 204 91.4 204 204zm2.8 0c0-114.2-92.6-206.8-206.8-206.8-114.2 0-206.8 92.6-206.8 206.8 0 114.2 92.6 206.8 206.8 206.8 114.2 0 206.8-92.6 206.8-206.8z"/><path class="st96" d="M280 53.9c0 113.7-92.2 205.8-205.8 205.8s-205.8-92.2-205.8-205.8 92.2-205.8 205.8-205.8S280-59.7 280 53.9zm2.8 0c0-115.2-93.4-208.6-208.6-208.6-115.2 0-208.6 93.4-208.6 208.6 0 115.2 93.4 208.6 208.6 208.6 115.2 0 208.6-93.3 208.6-208.6z"/><path d="M281.9 53.9c0 114.7-93 207.7-207.7 207.7s-207.7-93-207.7-207.7 93-207.7 207.7-207.7 207.7 93 207.7 207.7zm2.7 0c0-116.2-94.2-210.4-210.4-210.4S-136.2-62.3-136.2 53.9-42 264.4 74.2 264.4s210.4-94.2 210.4-210.5z" clip-path="url(#SVGID_2_)" fill-rule="evenodd" clip-rule="evenodd" fill="#275681"/><path d="M283.7 53.9c0 115.7-93.8 209.5-209.5 209.5s-209.5-93.8-209.5-209.5 93.8-209.5 209.5-209.5S283.7-61.8 283.7 53.9zm2.8 0c0-117.2-95-212.3-212.3-212.3s-212.3 95-212.3 212.3 95 212.3 212.3 212.3 212.3-95 212.3-212.3z" clip-path="url(#SVGID_2_)" fill-rule="evenodd" clip-rule="evenodd" fill="#275581"/><path d="M285.6 53.9c0 116.7-94.6 211.4-211.4 211.4-116.7 0-211.4-94.6-211.4-211.4 0-116.7 94.6-211.4 211.4-211.4 116.7.1 211.4 94.7 211.4 211.4zm2.7 0c0-118.3-95.9-214.1-214.1-214.1S-139.9-64.3-139.9 53.9-44 268 74.2 268s214.1-95.8 214.1-214.1z" clip-path="url(#SVGID_2_)" fill-rule="evenodd" clip-rule="evenodd" fill="#265580"/><path class="st100" d="M287.4 53.9c0 117.7-95.5 213.2-213.2 213.2-117.7 0-213.2-95.4-213.2-213.2 0-117.7 95.5-213.2 213.2-213.2 117.7 0 213.2 95.5 213.2 213.2zm2.8 0c0-119.3-96.7-216-216-216s-216 96.7-216 216 96.7 216 216 216 216-96.7 216-216z"/><path class="st100" d="M289.2 53.9c0 118.8-96.3 215-215 215-118.8 0-215-96.3-215-215 0-118.8 96.3-215 215-215 118.8 0 215 96.3 215 215zm2.8 0c0-120.3-97.5-217.8-217.8-217.8-120.3 0-217.8 97.5-217.8 217.8 0 120.3 97.5 217.8 217.8 217.8 120.3 0 217.8-97.5 217.8-217.8z"/><path class="st101" d="M291.1 53.9c0 119.8-97.1 216.9-216.9 216.9s-216.9-97.1-216.9-216.9C-142.7-65.9-45.6-163 74.2-163S291.1-65.8 291.1 53.9zm2.7 0c0-121.3-98.3-219.6-219.6-219.6S-145.4-67.4-145.4 53.9s98.3 219.6 219.6 219.6c121.3.1 219.6-98.3 219.6-219.6z"/><path class="st101" d="M292.9 53.9c0 120.8-97.9 218.7-218.7 218.7s-218.7-97.9-218.7-218.7 97.9-218.7 218.7-218.7 218.7 98 218.7 218.7zm2.8 0c0-122.3-99.2-221.5-221.5-221.5S-147.3-68.4-147.3 53.9s99.2 221.5 221.5 221.5 221.5-99.1 221.5-221.5z"/><path d="M294.7 53.9c0 121.8-98.7 220.5-220.5 220.5s-220.5-98.7-220.5-220.5 98.7-220.5 220.5-220.5S294.7-67.9 294.7 53.9zm2.8 0c0-123.3-100-223.3-223.3-223.3s-223.3 100-223.3 223.3c0 123.3 100 223.3 223.3 223.3s223.3-99.9 223.3-223.3z" clip-path="url(#SVGID_2_)" fill-rule="evenodd" clip-rule="evenodd" fill="#23527d"/><path d="M296.6 53.9c0 122.8-99.6 222.4-222.4 222.4s-222.4-99.6-222.4-222.4 99.6-222.4 222.4-222.4S296.6-68.9 296.6 53.9zm2.7 0c0-124.3-100.8-225.1-225.1-225.1S-150.9-70.4-150.9 53.9-50.1 279.1 74.2 279.1 299.3 178.3 299.3 53.9z" clip-path="url(#SVGID_2_)" fill-rule="evenodd" clip-rule="evenodd" fill="#23517d"/><path d="M298.4 53.9c0 123.8-100.4 224.2-224.2 224.2C-49.6 278.2-150 177.8-150 53.9c0-123.8 100.4-224.2 224.2-224.2 123.8 0 224.2 100.4 224.2 224.2zm2.8 0c0-125.4-101.6-227-227-227s-227 101.6-227 227 101.6 227 227 227 227-101.6 227-227z" clip-path="url(#SVGID_2_)" fill-rule="evenodd" clip-rule="evenodd" fill="#22517c"/><path class="st105" d="M300.3 53.9C300.3 178.8 199.1 280 74.2 280c-124.9 0-226.1-101.2-226.1-226.1 0-124.9 101.2-226.1 226.1-226.1 124.9.1 226.1 101.3 226.1 226.1zm2.7 0c0-126.4-102.4-228.8-228.8-228.8S-154.6-72.4-154.6 53.9-52.2 282.8 74.2 282.8 303 180.3 303 53.9z"/><path class="st105" d="M302.1 53.9c0 125.9-102 227.9-227.9 227.9s-227.9-102-227.9-227.9S-51.7-174 74.2-174 302.1-71.9 302.1 53.9zm2.8 0c0-127.4-103.3-230.7-230.7-230.7-127.4 0-230.7 103.3-230.7 230.7 0 127.4 103.3 230.7 230.7 230.7 127.4 0 230.7-103.3 230.7-230.7z"/><path class="st106" d="M303.9 53.9c0 126.9-102.9 229.7-229.7 229.7-126.9 0-229.7-102.9-229.7-229.7 0-126.9 102.9-229.7 229.7-229.7 126.9 0 229.7 102.9 229.7 229.7zm2.8 0c0-128.4-104.1-232.5-232.5-232.5S-158.3-74.5-158.3 53.9-54.2 286.4 74.2 286.4s232.5-104 232.5-232.5z"/><path class="st106" d="M305.8 53.9c0 127.9-103.7 231.6-231.6 231.6S-157.4 181.8-157.4 53.9-53.7-177.6 74.2-177.6 305.8-73.9 305.8 53.9zm2.7 0c0-129.4-104.9-234.3-234.3-234.3S-160.1-75.5-160.1 53.9-55.2 288.2 74.2 288.2c129.4.1 234.3-104.8 234.3-234.3z"/><path class="st1" d="M307.6 53.9c0 128.9-104.5 233.4-233.4 233.4S-159.2 182.9-159.2 53.9-54.7-179.5 74.2-179.5 307.6-75 307.6 53.9zm1.9 0c0-129.9-105.3-235.3-235.3-235.3S-161.1-76-161.1 53.9-55.7 289.2 74.2 289.2 309.5 183.9 309.5 53.9z"/></svg>